<svg width="128" height="128" viewBox="0 0 128 128" fill="none" xmlns="http://www.w3.org/2000/svg">
  <rect width="128" height="128" rx="28" fill="#050905"/>
  <path d="M105.5 29.5C99.6 19 88.4 12 75.5 12C56.4 12 41 27.4 41 46.5C41 65.6 56.4 81 75.5 81C88 81 98.9 74.4 105 64.4H90C86.1 69.8 80.1 73.3 73.2 73.3C61.7 73.3 52.4 64 52.4 52.5C52.4 41 61.7 31.7 73.2 31.7C80.4 31.7 86.7 35.5 90.5 41.1H106.6C106.2 37.1 105.9 33.2 105.5 29.5Z" fill="#F3F8F1"/>
  <path d="M70 40H114V55H70V40Z" fill="#F3F8F1"/>
  <path d="M70 61L104 87H84.5L55 61.5L70 61Z" fill="#1EFF63"/>
</svg>
